<mxfile host="app.diagrams.net" agent="Mozilla/5.0 (Windows NT 10.0; Win64; x64) AppleWebKit/537.36 (KHTML, like Gecko) Chrome/136.0.0.0 Safari/537.36" version="27.1.1">
  <diagram name="Page-1" id="NTLokcMF04RHlsLTF75R">
    <mxGraphModel dx="1797" dy="1611" grid="1" gridSize="10" guides="1" tooltips="1" connect="1" arrows="1" fold="1" page="1" pageScale="1" pageWidth="850" pageHeight="1100" math="0" shadow="0">
      <root>
        <mxCell id="0" />
        <mxCell id="1" parent="0" />
        <mxCell id="kzAq78kSjtGHVcET0Q6M-3" value="&lt;font style=&quot;font-size: 14px;&quot;&gt;Parking Spot&lt;/font&gt;&lt;div&gt;&lt;font style=&quot;font-size: 14px;&quot;&gt;&amp;lt;&amp;lt;Abstract Class&amp;gt;&amp;gt;&lt;/font&gt;&lt;/div&gt;" style="swimlane;fontStyle=1;align=center;verticalAlign=top;childLayout=stackLayout;horizontal=1;startSize=40;horizontalStack=0;resizeParent=1;resizeParentMax=0;resizeLast=0;collapsible=1;marginBottom=0;whiteSpace=wrap;html=1;" parent="1" vertex="1">
          <mxGeometry x="540" y="50" width="160" height="184" as="geometry" />
        </mxCell>
        <mxCell id="kzAq78kSjtGHVcET0Q6M-4" value="&lt;font style=&quot;font-size: 14px;&quot;&gt;+ id: int&lt;/font&gt;&lt;div&gt;&lt;font style=&quot;font-size: 14px;&quot;&gt;+ isEmpty: boolean&lt;/font&gt;&lt;/div&gt;&lt;div&gt;&lt;font style=&quot;font-size: 14px;&quot;&gt;+ vehicle : Vehicle&lt;/font&gt;&lt;/div&gt;&lt;div&gt;&lt;font style=&quot;font-size: 14px;&quot;&gt;+ price : int&lt;/font&gt;&lt;/div&gt;" style="text;strokeColor=none;fillColor=none;align=left;verticalAlign=top;spacingLeft=4;spacingRight=4;overflow=hidden;rotatable=0;points=[[0,0.5],[1,0.5]];portConstraint=eastwest;whiteSpace=wrap;html=1;" parent="kzAq78kSjtGHVcET0Q6M-3" vertex="1">
          <mxGeometry y="40" width="160" height="84" as="geometry" />
        </mxCell>
        <mxCell id="kzAq78kSjtGHVcET0Q6M-5" value="" style="line;strokeWidth=1;fillColor=none;align=left;verticalAlign=middle;spacingTop=-1;spacingLeft=3;spacingRight=3;rotatable=0;labelPosition=right;points=[];portConstraint=eastwest;strokeColor=inherit;" parent="kzAq78kSjtGHVcET0Q6M-3" vertex="1">
          <mxGeometry y="124" width="160" height="8" as="geometry" />
        </mxCell>
        <mxCell id="kzAq78kSjtGHVcET0Q6M-6" value="&lt;font style=&quot;font-size: 14px;&quot;&gt;+ parkVehicle(Vehicle)&lt;/font&gt;&lt;div&gt;&lt;font style=&quot;font-size: 14px;&quot;&gt;+ RemoveVehicle()&lt;/font&gt;&lt;/div&gt;" style="text;strokeColor=none;fillColor=none;align=left;verticalAlign=top;spacingLeft=4;spacingRight=4;overflow=hidden;rotatable=0;points=[[0,0.5],[1,0.5]];portConstraint=eastwest;whiteSpace=wrap;html=1;" parent="kzAq78kSjtGHVcET0Q6M-3" vertex="1">
          <mxGeometry y="132" width="160" height="52" as="geometry" />
        </mxCell>
        <mxCell id="kzAq78kSjtGHVcET0Q6M-21" value="" style="edgeStyle=orthogonalEdgeStyle;rounded=0;orthogonalLoop=1;jettySize=auto;html=1;entryX=0.508;entryY=0.996;entryDx=0;entryDy=0;entryPerimeter=0;endArrow=open;endFill=0;" parent="1" source="kzAq78kSjtGHVcET0Q6M-7" target="kzAq78kSjtGHVcET0Q6M-6" edge="1">
          <mxGeometry relative="1" as="geometry" />
        </mxCell>
        <mxCell id="kzAq78kSjtGHVcET0Q6M-7" value="Two Wheeler Spot" style="swimlane;fontStyle=0;childLayout=stackLayout;horizontal=1;startSize=26;fillColor=none;horizontalStack=0;resizeParent=1;resizeParentMax=0;resizeLast=0;collapsible=1;marginBottom=0;whiteSpace=wrap;html=1;" parent="1" vertex="1">
          <mxGeometry x="470" y="310" width="140" height="52" as="geometry" />
        </mxCell>
        <mxCell id="kzAq78kSjtGHVcET0Q6M-8" value="+ Price(): 10" style="text;strokeColor=none;fillColor=none;align=left;verticalAlign=top;spacingLeft=4;spacingRight=4;overflow=hidden;rotatable=0;points=[[0,0.5],[1,0.5]];portConstraint=eastwest;whiteSpace=wrap;html=1;" parent="kzAq78kSjtGHVcET0Q6M-7" vertex="1">
          <mxGeometry y="26" width="140" height="26" as="geometry" />
        </mxCell>
        <mxCell id="kzAq78kSjtGHVcET0Q6M-20" style="edgeStyle=orthogonalEdgeStyle;rounded=0;orthogonalLoop=1;jettySize=auto;html=1;entryX=0.563;entryY=1.115;entryDx=0;entryDy=0;entryPerimeter=0;endArrow=open;endFill=0;" parent="1" source="kzAq78kSjtGHVcET0Q6M-17" target="kzAq78kSjtGHVcET0Q6M-6" edge="1">
          <mxGeometry relative="1" as="geometry">
            <mxPoint x="620" y="260" as="targetPoint" />
            <Array as="points">
              <mxPoint x="720" y="270" />
              <mxPoint x="630" y="270" />
            </Array>
          </mxGeometry>
        </mxCell>
        <mxCell id="kzAq78kSjtGHVcET0Q6M-17" value="Four Wheeler Spot" style="swimlane;fontStyle=0;childLayout=stackLayout;horizontal=1;startSize=26;fillColor=none;horizontalStack=0;resizeParent=1;resizeParentMax=0;resizeLast=0;collapsible=1;marginBottom=0;whiteSpace=wrap;html=1;" parent="1" vertex="1">
          <mxGeometry x="650" y="310" width="140" height="52" as="geometry" />
        </mxCell>
        <mxCell id="kzAq78kSjtGHVcET0Q6M-18" value="+ Price(): 20" style="text;strokeColor=none;fillColor=none;align=left;verticalAlign=top;spacingLeft=4;spacingRight=4;overflow=hidden;rotatable=0;points=[[0,0.5],[1,0.5]];portConstraint=eastwest;whiteSpace=wrap;html=1;" parent="kzAq78kSjtGHVcET0Q6M-17" vertex="1">
          <mxGeometry y="26" width="140" height="26" as="geometry" />
        </mxCell>
        <mxCell id="kzAq78kSjtGHVcET0Q6M-24" value="&lt;p style=&quot;margin:0px;margin-top:4px;text-align:center;&quot;&gt;&lt;font style=&quot;font-size: 14px;&quot;&gt;&lt;i style=&quot;&quot;&gt;&amp;lt;&amp;lt;Abstract Class&amp;gt;&amp;gt;&lt;/i&gt;&lt;br&gt;&lt;b style=&quot;&quot;&gt;Parking Spot Manager&lt;/b&gt;&lt;/font&gt;&lt;/p&gt;&lt;hr size=&quot;1&quot; style=&quot;border-style:solid;&quot;&gt;&lt;p style=&quot;margin:0px;margin-left:4px;&quot;&gt;&lt;font style=&quot;font-size: 14px;&quot;&gt;+ list: List&amp;lt;ParkingSpot&amp;gt;&lt;br&gt;+ parkingStrategy: ParkingStrategy&lt;/font&gt;&lt;/p&gt;&lt;hr size=&quot;1&quot; style=&quot;border-style:solid;&quot;&gt;&lt;p style=&quot;margin:0px;margin-left:4px;&quot;&gt;&lt;font style=&quot;font-size: 14px;&quot;&gt;+ findParkingSpot(): ParkingSpot&lt;br&gt;+ addParkingSpot(ParkingSpot): void&lt;/font&gt;&lt;/p&gt;&lt;p style=&quot;margin:0px;margin-left:4px;&quot;&gt;&lt;font style=&quot;font-size: 14px;&quot;&gt;+ removeParkingSpace(ParkingSpot)&lt;/font&gt;&lt;/p&gt;&lt;p style=&quot;margin:0px;margin-left:4px;&quot;&gt;&lt;font style=&quot;font-size: 14px;&quot;&gt;+ parkVehicle();&lt;/font&gt;&lt;/p&gt;&lt;p style=&quot;margin:0px;margin-left:4px;&quot;&gt;&lt;font style=&quot;font-size: 14px;&quot;&gt;+ RemoveVehicle();&lt;/font&gt;&lt;/p&gt;&lt;p style=&quot;margin:0px;margin-left:4px;&quot;&gt;&lt;br&gt;&lt;/p&gt;" style="verticalAlign=top;align=left;overflow=fill;html=1;whiteSpace=wrap;" parent="1" vertex="1">
          <mxGeometry x="10" y="44" width="275" height="196" as="geometry" />
        </mxCell>
        <mxCell id="kzAq78kSjtGHVcET0Q6M-36" style="edgeStyle=orthogonalEdgeStyle;rounded=0;orthogonalLoop=1;jettySize=auto;html=1;entryX=0.5;entryY=1;entryDx=0;entryDy=0;endArrow=open;endFill=0;" parent="1" source="kzAq78kSjtGHVcET0Q6M-29" target="kzAq78kSjtGHVcET0Q6M-24" edge="1">
          <mxGeometry relative="1" as="geometry" />
        </mxCell>
        <mxCell id="kzAq78kSjtGHVcET0Q6M-29" value="TwoWheelerSpotManager" style="swimlane;fontStyle=1;align=center;verticalAlign=top;childLayout=stackLayout;horizontal=1;startSize=26;horizontalStack=0;resizeParent=1;resizeParentMax=0;resizeLast=0;collapsible=1;marginBottom=0;whiteSpace=wrap;html=1;" parent="1" vertex="1">
          <mxGeometry x="-170" y="310" width="280" height="70" as="geometry" />
        </mxCell>
        <mxCell id="kzAq78kSjtGHVcET0Q6M-32" value="+&amp;nbsp;&lt;span style=&quot;font-weight: 700; text-align: center;&quot;&gt;TwoWheelerSpotManager&lt;/span&gt;(List&amp;lt;ParkingSpot&amp;gt;,&lt;div&gt;ParkingStrategy): super()&lt;/div&gt;" style="text;strokeColor=none;fillColor=none;align=left;verticalAlign=top;spacingLeft=4;spacingRight=4;overflow=hidden;rotatable=0;points=[[0,0.5],[1,0.5]];portConstraint=eastwest;whiteSpace=wrap;html=1;" parent="kzAq78kSjtGHVcET0Q6M-29" vertex="1">
          <mxGeometry y="26" width="280" height="44" as="geometry" />
        </mxCell>
        <mxCell id="kzAq78kSjtGHVcET0Q6M-37" style="edgeStyle=orthogonalEdgeStyle;rounded=0;orthogonalLoop=1;jettySize=auto;html=1;entryX=0.5;entryY=1;entryDx=0;entryDy=0;endArrow=open;endFill=0;" parent="1" source="kzAq78kSjtGHVcET0Q6M-33" target="kzAq78kSjtGHVcET0Q6M-24" edge="1">
          <mxGeometry relative="1" as="geometry" />
        </mxCell>
        <mxCell id="kzAq78kSjtGHVcET0Q6M-33" value="FourWheelerSpotManager" style="swimlane;fontStyle=1;align=center;verticalAlign=top;childLayout=stackLayout;horizontal=1;startSize=26;horizontalStack=0;resizeParent=1;resizeParentMax=0;resizeLast=0;collapsible=1;marginBottom=0;whiteSpace=wrap;html=1;" parent="1" vertex="1">
          <mxGeometry x="160" y="310" width="280" height="70" as="geometry" />
        </mxCell>
        <mxCell id="kzAq78kSjtGHVcET0Q6M-34" value="+ &lt;b&gt;Four&lt;/b&gt;&lt;span style=&quot;font-weight: 700; text-align: center;&quot;&gt;WheelerSpotManager&lt;/span&gt;(List&amp;lt;ParkingSpot&amp;gt;,&lt;div&gt;ParkingStrategy): super()&lt;/div&gt;" style="text;strokeColor=none;fillColor=none;align=left;verticalAlign=top;spacingLeft=4;spacingRight=4;overflow=hidden;rotatable=0;points=[[0,0.5],[1,0.5]];portConstraint=eastwest;whiteSpace=wrap;html=1;" parent="kzAq78kSjtGHVcET0Q6M-33" vertex="1">
          <mxGeometry y="26" width="280" height="44" as="geometry" />
        </mxCell>
        <mxCell id="kzAq78kSjtGHVcET0Q6M-38" style="edgeStyle=orthogonalEdgeStyle;rounded=0;orthogonalLoop=1;jettySize=auto;html=1;entryX=0.01;entryY=0.617;entryDx=0;entryDy=0;entryPerimeter=0;endArrow=block;endFill=0;" parent="1" source="kzAq78kSjtGHVcET0Q6M-24" target="kzAq78kSjtGHVcET0Q6M-4" edge="1">
          <mxGeometry relative="1" as="geometry" />
        </mxCell>
        <mxCell id="kzAq78kSjtGHVcET0Q6M-39" value="&lt;font style=&quot;font-size: 14px;&quot;&gt;EntranceGate&lt;/font&gt;" style="swimlane;fontStyle=1;align=center;verticalAlign=top;childLayout=stackLayout;horizontal=1;startSize=26;horizontalStack=0;resizeParent=1;resizeParentMax=0;resizeLast=0;collapsible=1;marginBottom=0;whiteSpace=wrap;html=1;" parent="1" vertex="1">
          <mxGeometry x="-450" y="-160" width="330" height="190" as="geometry" />
        </mxCell>
        <mxCell id="kzAq78kSjtGHVcET0Q6M-40" value="&lt;font style=&quot;font-size: 14px;&quot;&gt;+ gateId: int&lt;/font&gt;&lt;div&gt;&lt;font style=&quot;font-size: 14px;&quot;&gt;+ ParkingSpotManager&lt;/font&gt;&lt;/div&gt;&lt;div&gt;&lt;font style=&quot;font-size: 14px;&quot;&gt;+ ParkingSpotFactory(Vehicle)&lt;/font&gt;&lt;/div&gt;&lt;div&gt;&lt;font style=&quot;font-size: 14px;&quot;&gt;+ Ticket&lt;/font&gt;&lt;/div&gt;" style="text;strokeColor=none;fillColor=none;align=left;verticalAlign=top;spacingLeft=4;spacingRight=4;overflow=hidden;rotatable=0;points=[[0,0.5],[1,0.5]];portConstraint=eastwest;whiteSpace=wrap;html=1;" parent="kzAq78kSjtGHVcET0Q6M-39" vertex="1">
          <mxGeometry y="26" width="330" height="84" as="geometry" />
        </mxCell>
        <mxCell id="kzAq78kSjtGHVcET0Q6M-41" value="" style="line;strokeWidth=1;fillColor=none;align=left;verticalAlign=middle;spacingTop=-1;spacingLeft=3;spacingRight=3;rotatable=0;labelPosition=right;points=[];portConstraint=eastwest;strokeColor=inherit;" parent="kzAq78kSjtGHVcET0Q6M-39" vertex="1">
          <mxGeometry y="110" width="330" height="8" as="geometry" />
        </mxCell>
        <mxCell id="kzAq78kSjtGHVcET0Q6M-42" value="&lt;font style=&quot;font-size: 14px;&quot;&gt;- findParkingSpace(Vehicle, gateId): ParkingSpot&lt;/font&gt;&lt;div&gt;&lt;font style=&quot;font-size: 14px;&quot;&gt;+ allocateParkingSpace() : boolean&lt;/font&gt;&lt;/div&gt;&lt;div&gt;&lt;font style=&quot;font-size: 14px;&quot;&gt;+ generateTicket() : Ticket&lt;/font&gt;&lt;/div&gt;" style="text;strokeColor=none;fillColor=none;align=left;verticalAlign=top;spacingLeft=4;spacingRight=4;overflow=hidden;rotatable=0;points=[[0,0.5],[1,0.5]];portConstraint=eastwest;whiteSpace=wrap;html=1;" parent="kzAq78kSjtGHVcET0Q6M-39" vertex="1">
          <mxGeometry y="118" width="330" height="72" as="geometry" />
        </mxCell>
        <mxCell id="kzAq78kSjtGHVcET0Q6M-49" value="Vehicle" style="swimlane;fontStyle=1;align=center;verticalAlign=top;childLayout=stackLayout;horizontal=1;startSize=26;horizontalStack=0;resizeParent=1;resizeParentMax=0;resizeLast=0;collapsible=1;marginBottom=0;whiteSpace=wrap;html=1;" parent="1" vertex="1">
          <mxGeometry x="530" y="-160" width="160" height="90" as="geometry" />
        </mxCell>
        <mxCell id="kzAq78kSjtGHVcET0Q6M-50" value="+ vehicleNo: int&lt;div&gt;+ vehicleType: VehicleType&lt;/div&gt;" style="text;strokeColor=none;fillColor=none;align=left;verticalAlign=top;spacingLeft=4;spacingRight=4;overflow=hidden;rotatable=0;points=[[0,0.5],[1,0.5]];portConstraint=eastwest;whiteSpace=wrap;html=1;" parent="kzAq78kSjtGHVcET0Q6M-49" vertex="1">
          <mxGeometry y="26" width="160" height="64" as="geometry" />
        </mxCell>
        <mxCell id="kzAq78kSjtGHVcET0Q6M-53" style="edgeStyle=orthogonalEdgeStyle;rounded=0;orthogonalLoop=1;jettySize=auto;html=1;entryX=0.563;entryY=1;entryDx=0;entryDy=0;entryPerimeter=0;endArrow=block;endFill=0;" parent="1" source="kzAq78kSjtGHVcET0Q6M-3" target="kzAq78kSjtGHVcET0Q6M-50" edge="1">
          <mxGeometry relative="1" as="geometry" />
        </mxCell>
        <mxCell id="kzAq78kSjtGHVcET0Q6M-54" value="Ticket" style="swimlane;fontStyle=1;align=center;verticalAlign=top;childLayout=stackLayout;horizontal=1;startSize=26;horizontalStack=0;resizeParent=1;resizeParentMax=0;resizeLast=0;collapsible=1;marginBottom=0;whiteSpace=wrap;html=1;" parent="1" vertex="1">
          <mxGeometry x="200" y="-80" width="160" height="70" as="geometry" />
        </mxCell>
        <mxCell id="kzAq78kSjtGHVcET0Q6M-55" value="+ inTime: DateTime&lt;div&gt;+ parkingSpot: ParkingSpot&lt;/div&gt;&lt;div&gt;&lt;br&gt;&lt;/div&gt;" style="text;strokeColor=none;fillColor=none;align=left;verticalAlign=top;spacingLeft=4;spacingRight=4;overflow=hidden;rotatable=0;points=[[0,0.5],[1,0.5]];portConstraint=eastwest;whiteSpace=wrap;html=1;" parent="kzAq78kSjtGHVcET0Q6M-54" vertex="1">
          <mxGeometry y="26" width="160" height="44" as="geometry" />
        </mxCell>
        <mxCell id="kzAq78kSjtGHVcET0Q6M-58" style="edgeStyle=orthogonalEdgeStyle;rounded=0;orthogonalLoop=1;jettySize=auto;html=1;entryX=0;entryY=0.5;entryDx=0;entryDy=0;endArrow=block;endFill=0;" parent="1" source="kzAq78kSjtGHVcET0Q6M-55" target="kzAq78kSjtGHVcET0Q6M-4" edge="1">
          <mxGeometry relative="1" as="geometry" />
        </mxCell>
        <mxCell id="kzAq78kSjtGHVcET0Q6M-59" style="edgeStyle=orthogonalEdgeStyle;rounded=0;orthogonalLoop=1;jettySize=auto;html=1;entryX=-0.003;entryY=0.218;entryDx=0;entryDy=0;entryPerimeter=0;endArrow=block;endFill=0;" parent="1" source="kzAq78kSjtGHVcET0Q6M-39" target="kzAq78kSjtGHVcET0Q6M-55" edge="1">
          <mxGeometry relative="1" as="geometry">
            <Array as="points">
              <mxPoint x="-70" y="-44" />
              <mxPoint x="-70" y="-44" />
            </Array>
          </mxGeometry>
        </mxCell>
        <mxCell id="kzAq78kSjtGHVcET0Q6M-60" style="edgeStyle=orthogonalEdgeStyle;rounded=0;orthogonalLoop=1;jettySize=auto;html=1;entryX=0;entryY=0.5;entryDx=0;entryDy=0;endArrow=block;endFill=0;" parent="1" source="kzAq78kSjtGHVcET0Q6M-40" target="kzAq78kSjtGHVcET0Q6M-50" edge="1">
          <mxGeometry relative="1" as="geometry">
            <Array as="points">
              <mxPoint x="20" y="-102" />
              <mxPoint x="20" y="-102" />
            </Array>
          </mxGeometry>
        </mxCell>
        <mxCell id="kzAq78kSjtGHVcET0Q6M-84" style="edgeStyle=orthogonalEdgeStyle;rounded=0;orthogonalLoop=1;jettySize=auto;html=1;endArrow=open;endFill=0;" parent="1" source="kzAq78kSjtGHVcET0Q6M-61" target="kzAq78kSjtGHVcET0Q6M-81" edge="1">
          <mxGeometry relative="1" as="geometry">
            <Array as="points">
              <mxPoint x="-520" y="156" />
              <mxPoint x="-520" y="-262" />
            </Array>
          </mxGeometry>
        </mxCell>
        <mxCell id="kzAq78kSjtGHVcET0Q6M-61" value="&lt;font style=&quot;font-size: 14px;&quot;&gt;ParkingSpotFactory&lt;/font&gt;" style="swimlane;fontStyle=1;align=center;verticalAlign=top;childLayout=stackLayout;horizontal=1;startSize=26;horizontalStack=0;resizeParent=1;resizeParentMax=0;resizeLast=0;collapsible=1;marginBottom=0;whiteSpace=wrap;html=1;" parent="1" vertex="1">
          <mxGeometry x="-440" y="130" width="280" height="52" as="geometry" />
        </mxCell>
        <mxCell id="kzAq78kSjtGHVcET0Q6M-64" value="+ getParkingSpotManager(Vehicle): ParkingSpot" style="text;strokeColor=none;fillColor=none;align=left;verticalAlign=top;spacingLeft=4;spacingRight=4;overflow=hidden;rotatable=0;points=[[0,0.5],[1,0.5]];portConstraint=eastwest;whiteSpace=wrap;html=1;" parent="kzAq78kSjtGHVcET0Q6M-61" vertex="1">
          <mxGeometry y="26" width="280" height="26" as="geometry" />
        </mxCell>
        <mxCell id="kzAq78kSjtGHVcET0Q6M-65" style="edgeStyle=orthogonalEdgeStyle;rounded=0;orthogonalLoop=1;jettySize=auto;html=1;entryX=0;entryY=0.571;entryDx=0;entryDy=0;entryPerimeter=0;endArrow=block;endFill=0;" parent="1" source="kzAq78kSjtGHVcET0Q6M-61" target="kzAq78kSjtGHVcET0Q6M-24" edge="1">
          <mxGeometry relative="1" as="geometry" />
        </mxCell>
        <mxCell id="kzAq78kSjtGHVcET0Q6M-66" style="edgeStyle=orthogonalEdgeStyle;rounded=0;orthogonalLoop=1;jettySize=auto;html=1;entryX=0.467;entryY=0.034;entryDx=0;entryDy=0;entryPerimeter=0;endArrow=block;endFill=0;" parent="1" source="kzAq78kSjtGHVcET0Q6M-39" target="kzAq78kSjtGHVcET0Q6M-61" edge="1">
          <mxGeometry relative="1" as="geometry">
            <Array as="points">
              <mxPoint x="-300" y="60" />
              <mxPoint x="-300" y="60" />
            </Array>
          </mxGeometry>
        </mxCell>
        <mxCell id="kzAq78kSjtGHVcET0Q6M-79" style="edgeStyle=orthogonalEdgeStyle;rounded=0;orthogonalLoop=1;jettySize=auto;html=1;entryX=0;entryY=0.75;entryDx=0;entryDy=0;" parent="1" source="kzAq78kSjtGHVcET0Q6M-70" target="kzAq78kSjtGHVcET0Q6M-24" edge="1">
          <mxGeometry relative="1" as="geometry">
            <Array as="points">
              <mxPoint x="-220" y="480" />
              <mxPoint x="-220" y="191" />
            </Array>
          </mxGeometry>
        </mxCell>
        <mxCell id="kzAq78kSjtGHVcET0Q6M-70" value="&lt;p style=&quot;margin:0px;margin-top:4px;text-align:center;&quot;&gt;&lt;font style=&quot;font-size: 14px;&quot;&gt;«interface»&lt;br style=&quot;&quot;&gt;&lt;b style=&quot;&quot;&gt;ParkingSpotStrategy&lt;/b&gt;&lt;/font&gt;&lt;/p&gt;&lt;hr size=&quot;1&quot; style=&quot;border-style:solid;&quot;&gt;&lt;p style=&quot;margin:0px;margin-left:4px;&quot;&gt;&lt;font style=&quot;font-size: 14px;&quot;&gt;+ findParkingSpot(int gateId): ParkingSpot&lt;/font&gt;&lt;/p&gt;" style="verticalAlign=top;align=left;overflow=fill;html=1;whiteSpace=wrap;" parent="1" vertex="1">
          <mxGeometry x="70" y="440" width="270" height="80" as="geometry" />
        </mxCell>
        <mxCell id="kzAq78kSjtGHVcET0Q6M-77" style="edgeStyle=orthogonalEdgeStyle;rounded=0;orthogonalLoop=1;jettySize=auto;html=1;entryX=0.5;entryY=1;entryDx=0;entryDy=0;endArrow=open;endFill=0;" parent="1" source="kzAq78kSjtGHVcET0Q6M-71" target="kzAq78kSjtGHVcET0Q6M-70" edge="1">
          <mxGeometry relative="1" as="geometry" />
        </mxCell>
        <mxCell id="kzAq78kSjtGHVcET0Q6M-71" value="&lt;font style=&quot;font-size: 14px;&quot;&gt;NearToEntrance&lt;/font&gt;" style="swimlane;fontStyle=0;childLayout=stackLayout;horizontal=1;startSize=26;fillColor=none;horizontalStack=0;resizeParent=1;resizeParentMax=0;resizeLast=0;collapsible=1;marginBottom=0;whiteSpace=wrap;html=1;" parent="1" vertex="1">
          <mxGeometry x="-40" y="570" width="220" height="52" as="geometry" />
        </mxCell>
        <mxCell id="kzAq78kSjtGHVcET0Q6M-72" value="&lt;span style=&quot;font-size: 14px;&quot;&gt;+ findParkingSpot(int gateId): ParkingSpot&lt;/span&gt;" style="text;strokeColor=none;fillColor=none;align=left;verticalAlign=top;spacingLeft=4;spacingRight=4;overflow=hidden;rotatable=0;points=[[0,0.5],[1,0.5]];portConstraint=eastwest;whiteSpace=wrap;html=1;" parent="kzAq78kSjtGHVcET0Q6M-71" vertex="1">
          <mxGeometry y="26" width="220" height="26" as="geometry" />
        </mxCell>
        <mxCell id="kzAq78kSjtGHVcET0Q6M-75" value="&lt;font style=&quot;font-size: 14px;&quot;&gt;NearToLift&lt;/font&gt;" style="swimlane;fontStyle=0;childLayout=stackLayout;horizontal=1;startSize=26;fillColor=none;horizontalStack=0;resizeParent=1;resizeParentMax=0;resizeLast=0;collapsible=1;marginBottom=0;whiteSpace=wrap;html=1;" parent="1" vertex="1">
          <mxGeometry x="230" y="570" width="220" height="52" as="geometry" />
        </mxCell>
        <mxCell id="kzAq78kSjtGHVcET0Q6M-76" value="&lt;span style=&quot;font-size: 14px;&quot;&gt;+ findParkingSpot(int gateId): ParkingSpot&lt;/span&gt;" style="text;strokeColor=none;fillColor=none;align=left;verticalAlign=top;spacingLeft=4;spacingRight=4;overflow=hidden;rotatable=0;points=[[0,0.5],[1,0.5]];portConstraint=eastwest;whiteSpace=wrap;html=1;" parent="kzAq78kSjtGHVcET0Q6M-75" vertex="1">
          <mxGeometry y="26" width="220" height="26" as="geometry" />
        </mxCell>
        <mxCell id="kzAq78kSjtGHVcET0Q6M-78" style="edgeStyle=orthogonalEdgeStyle;rounded=0;orthogonalLoop=1;jettySize=auto;html=1;entryX=0.554;entryY=0.971;entryDx=0;entryDy=0;entryPerimeter=0;endArrow=open;endFill=0;" parent="1" source="kzAq78kSjtGHVcET0Q6M-75" target="kzAq78kSjtGHVcET0Q6M-70" edge="1">
          <mxGeometry relative="1" as="geometry" />
        </mxCell>
        <mxCell id="kzAq78kSjtGHVcET0Q6M-80" value="&lt;font style=&quot;font-size: 14px;&quot;&gt;ExitGate&lt;/font&gt;" style="swimlane;fontStyle=1;align=center;verticalAlign=top;childLayout=stackLayout;horizontal=1;startSize=26;horizontalStack=0;resizeParent=1;resizeParentMax=0;resizeLast=0;collapsible=1;marginBottom=0;whiteSpace=wrap;html=1;" parent="1" vertex="1">
          <mxGeometry x="70" y="-330" width="330" height="190" as="geometry" />
        </mxCell>
        <mxCell id="kzAq78kSjtGHVcET0Q6M-81" value="&lt;font style=&quot;font-size: 14px;&quot;&gt;+ gateId: int&lt;/font&gt;&lt;div&gt;&lt;font style=&quot;font-size: 14px;&quot;&gt;+ ParkingSpotManager&lt;/font&gt;&lt;/div&gt;&lt;div&gt;&lt;font style=&quot;font-size: 14px;&quot;&gt;+ ParkingSpotFactory(Ticket.Vehicle)&lt;/font&gt;&lt;/div&gt;&lt;div&gt;&lt;font style=&quot;font-size: 14px;&quot;&gt;+ Ticket&lt;/font&gt;&lt;/div&gt;&lt;div&gt;&lt;font style=&quot;font-size: 14px;&quot;&gt;+ CostComputationFactory(Ticket.Vehicle)&lt;/font&gt;&lt;/div&gt;&lt;div&gt;&lt;font style=&quot;font-size: 14px;&quot;&gt;+ PaymentFactory&lt;/font&gt;&lt;/div&gt;" style="text;strokeColor=none;fillColor=none;align=left;verticalAlign=top;spacingLeft=4;spacingRight=4;overflow=hidden;rotatable=0;points=[[0,0.5],[1,0.5]];portConstraint=eastwest;whiteSpace=wrap;html=1;" parent="kzAq78kSjtGHVcET0Q6M-80" vertex="1">
          <mxGeometry y="26" width="330" height="114" as="geometry" />
        </mxCell>
        <mxCell id="kzAq78kSjtGHVcET0Q6M-82" value="" style="line;strokeWidth=1;fillColor=none;align=left;verticalAlign=middle;spacingTop=-1;spacingLeft=3;spacingRight=3;rotatable=0;labelPosition=right;points=[];portConstraint=eastwest;strokeColor=inherit;" parent="kzAq78kSjtGHVcET0Q6M-80" vertex="1">
          <mxGeometry y="140" width="330" height="2" as="geometry" />
        </mxCell>
        <mxCell id="kzAq78kSjtGHVcET0Q6M-83" value="&lt;div&gt;&lt;font style=&quot;font-size: 14px;&quot;&gt;+ payment(Price)&lt;/font&gt;&lt;/div&gt;&lt;font style=&quot;font-size: 14px;&quot;&gt;+ freeParkingSpace(Vehicle, gateId): void&lt;/font&gt;" style="text;strokeColor=none;fillColor=none;align=left;verticalAlign=top;spacingLeft=4;spacingRight=4;overflow=hidden;rotatable=0;points=[[0,0.5],[1,0.5]];portConstraint=eastwest;whiteSpace=wrap;html=1;fontSize=14;" parent="kzAq78kSjtGHVcET0Q6M-80" vertex="1">
          <mxGeometry y="142" width="330" height="48" as="geometry" />
        </mxCell>
        <mxCell id="kzAq78kSjtGHVcET0Q6M-85" style="edgeStyle=orthogonalEdgeStyle;rounded=0;orthogonalLoop=1;jettySize=auto;html=1;entryX=1.015;entryY=-0.062;entryDx=0;entryDy=0;entryPerimeter=0;endArrow=open;endFill=0;" parent="1" source="kzAq78kSjtGHVcET0Q6M-54" target="kzAq78kSjtGHVcET0Q6M-83" edge="1">
          <mxGeometry relative="1" as="geometry" />
        </mxCell>
        <mxCell id="kzAq78kSjtGHVcET0Q6M-86" value="&lt;p style=&quot;margin:0px;margin-top:4px;text-align:center;&quot;&gt;&lt;b&gt;PricingStrategy&lt;/b&gt;&lt;/p&gt;&lt;hr size=&quot;1&quot; style=&quot;border-style:solid;&quot;&gt;&lt;p style=&quot;margin:0px;margin-left:4px;&quot;&gt;+ Price(): float // default fixed&lt;br&gt;&lt;br&gt;&lt;/p&gt;" style="verticalAlign=top;align=left;overflow=fill;html=1;whiteSpace=wrap;" parent="1" vertex="1">
          <mxGeometry x="1310" y="-340" width="190" height="50" as="geometry" />
        </mxCell>
        <mxCell id="kzAq78kSjtGHVcET0Q6M-89" style="edgeStyle=orthogonalEdgeStyle;rounded=0;orthogonalLoop=1;jettySize=auto;html=1;endArrow=open;endFill=0;" parent="1" source="kzAq78kSjtGHVcET0Q6M-87" target="kzAq78kSjtGHVcET0Q6M-86" edge="1">
          <mxGeometry relative="1" as="geometry" />
        </mxCell>
        <mxCell id="kzAq78kSjtGHVcET0Q6M-87" value="&lt;p style=&quot;margin:0px;margin-top:4px;text-align:center;&quot;&gt;&lt;b&gt;HourlyStrategy&lt;/b&gt;&lt;/p&gt;&lt;hr size=&quot;1&quot; style=&quot;border-style:solid;&quot;&gt;&lt;p style=&quot;margin:0px;margin-left:4px;&quot;&gt;+ Price(): float&amp;nbsp;&lt;br&gt;&lt;/p&gt;" style="verticalAlign=top;align=left;overflow=fill;html=1;whiteSpace=wrap;" parent="1" vertex="1">
          <mxGeometry x="1190" y="-250" width="190" height="50" as="geometry" />
        </mxCell>
        <mxCell id="kzAq78kSjtGHVcET0Q6M-88" value="&lt;p style=&quot;margin:0px;margin-top:4px;text-align:center;&quot;&gt;&lt;b&gt;MinuteStrategy&lt;/b&gt;&lt;/p&gt;&lt;hr size=&quot;1&quot; style=&quot;border-style:solid;&quot;&gt;&lt;p style=&quot;margin:0px;margin-left:4px;&quot;&gt;+ Price(): float&amp;nbsp;&lt;br&gt;&lt;/p&gt;" style="verticalAlign=top;align=left;overflow=fill;html=1;whiteSpace=wrap;" parent="1" vertex="1">
          <mxGeometry x="1460" y="-250" width="190" height="50" as="geometry" />
        </mxCell>
        <mxCell id="kzAq78kSjtGHVcET0Q6M-90" style="edgeStyle=orthogonalEdgeStyle;rounded=0;orthogonalLoop=1;jettySize=auto;html=1;entryX=0.579;entryY=1;entryDx=0;entryDy=0;entryPerimeter=0;endArrow=open;endFill=0;" parent="1" source="kzAq78kSjtGHVcET0Q6M-88" target="kzAq78kSjtGHVcET0Q6M-86" edge="1">
          <mxGeometry relative="1" as="geometry" />
        </mxCell>
        <mxCell id="kzAq78kSjtGHVcET0Q6M-91" value="CostComputation" style="swimlane;fontStyle=1;align=center;verticalAlign=top;childLayout=stackLayout;horizontal=1;startSize=26;horizontalStack=0;resizeParent=1;resizeParentMax=0;resizeLast=0;collapsible=1;marginBottom=0;whiteSpace=wrap;html=1;" parent="1" vertex="1">
          <mxGeometry x="850" y="-359" width="200" height="88" as="geometry" />
        </mxCell>
        <mxCell id="kzAq78kSjtGHVcET0Q6M-92" value="+ PricingStrategy" style="text;strokeColor=none;fillColor=none;align=left;verticalAlign=top;spacingLeft=4;spacingRight=4;overflow=hidden;rotatable=0;points=[[0,0.5],[1,0.5]];portConstraint=eastwest;whiteSpace=wrap;html=1;fontSize=14;" parent="kzAq78kSjtGHVcET0Q6M-91" vertex="1">
          <mxGeometry y="26" width="200" height="26" as="geometry" />
        </mxCell>
        <mxCell id="kzAq78kSjtGHVcET0Q6M-93" value="" style="line;strokeWidth=1;fillColor=none;align=left;verticalAlign=middle;spacingTop=-1;spacingLeft=3;spacingRight=3;rotatable=0;labelPosition=right;points=[];portConstraint=eastwest;strokeColor=inherit;" parent="kzAq78kSjtGHVcET0Q6M-91" vertex="1">
          <mxGeometry y="52" width="200" height="10" as="geometry" />
        </mxCell>
        <mxCell id="kzAq78kSjtGHVcET0Q6M-94" value="+ Compute();" style="text;strokeColor=none;fillColor=none;align=left;verticalAlign=top;spacingLeft=4;spacingRight=4;overflow=hidden;rotatable=0;points=[[0,0.5],[1,0.5]];portConstraint=eastwest;whiteSpace=wrap;html=1;fontSize=14;" parent="kzAq78kSjtGHVcET0Q6M-91" vertex="1">
          <mxGeometry y="62" width="200" height="26" as="geometry" />
        </mxCell>
        <mxCell id="kzAq78kSjtGHVcET0Q6M-95" value="&lt;p style=&quot;margin:0px;margin-top:4px;text-align:center;&quot;&gt;&lt;b&gt;TwoWheeler&lt;/b&gt;&lt;/p&gt;&lt;hr size=&quot;1&quot; style=&quot;border-style:solid;&quot;&gt;&lt;p style=&quot;margin:0px;margin-left:4px;&quot;&gt;+ TwoWheeler(HourlyStrategy)&lt;br&gt;&lt;/p&gt;" style="verticalAlign=top;align=left;overflow=fill;html=1;whiteSpace=wrap;" parent="1" vertex="1">
          <mxGeometry x="750" y="-230" width="190" height="50" as="geometry" />
        </mxCell>
        <mxCell id="kzAq78kSjtGHVcET0Q6M-96" value="&lt;p style=&quot;margin:0px;margin-top:4px;text-align:center;&quot;&gt;&lt;b&gt;FourWheeler&lt;/b&gt;&lt;/p&gt;&lt;hr size=&quot;1&quot; style=&quot;border-style:solid;&quot;&gt;&lt;p style=&quot;margin:0px;margin-left:4px;&quot;&gt;+ FourWheeler(MinuteStrategy)&lt;br&gt;&lt;/p&gt;" style="verticalAlign=top;align=left;overflow=fill;html=1;whiteSpace=wrap;" parent="1" vertex="1">
          <mxGeometry x="960" y="-230" width="190" height="50" as="geometry" />
        </mxCell>
        <mxCell id="kzAq78kSjtGHVcET0Q6M-97" style="edgeStyle=orthogonalEdgeStyle;rounded=0;orthogonalLoop=1;jettySize=auto;html=1;entryX=0.488;entryY=0.97;entryDx=0;entryDy=0;entryPerimeter=0;" parent="1" source="kzAq78kSjtGHVcET0Q6M-95" target="kzAq78kSjtGHVcET0Q6M-94" edge="1">
          <mxGeometry relative="1" as="geometry" />
        </mxCell>
        <mxCell id="kzAq78kSjtGHVcET0Q6M-98" style="edgeStyle=orthogonalEdgeStyle;rounded=0;orthogonalLoop=1;jettySize=auto;html=1;entryX=0.574;entryY=0.97;entryDx=0;entryDy=0;entryPerimeter=0;" parent="1" source="kzAq78kSjtGHVcET0Q6M-96" target="kzAq78kSjtGHVcET0Q6M-94" edge="1">
          <mxGeometry relative="1" as="geometry" />
        </mxCell>
        <mxCell id="kzAq78kSjtGHVcET0Q6M-99" value="&lt;font style=&quot;font-size: 14px;&quot;&gt;CostComputationFactory&lt;/font&gt;" style="swimlane;fontStyle=1;align=center;verticalAlign=top;childLayout=stackLayout;horizontal=1;startSize=26;horizontalStack=0;resizeParent=1;resizeParentMax=0;resizeLast=0;collapsible=1;marginBottom=0;whiteSpace=wrap;html=1;" parent="1" vertex="1">
          <mxGeometry x="470" y="-333" width="280" height="52" as="geometry" />
        </mxCell>
        <mxCell id="kzAq78kSjtGHVcET0Q6M-100" value="+ getCostComputation(Vehicle): ParkingSpot" style="text;strokeColor=none;fillColor=none;align=left;verticalAlign=top;spacingLeft=4;spacingRight=4;overflow=hidden;rotatable=0;points=[[0,0.5],[1,0.5]];portConstraint=eastwest;whiteSpace=wrap;html=1;" parent="kzAq78kSjtGHVcET0Q6M-99" vertex="1">
          <mxGeometry y="26" width="280" height="26" as="geometry" />
        </mxCell>
        <mxCell id="kzAq78kSjtGHVcET0Q6M-103" style="edgeStyle=orthogonalEdgeStyle;rounded=0;orthogonalLoop=1;jettySize=auto;html=1;entryX=0.001;entryY=0.937;entryDx=0;entryDy=0;entryPerimeter=0;endArrow=block;endFill=0;" parent="1" source="kzAq78kSjtGHVcET0Q6M-99" target="kzAq78kSjtGHVcET0Q6M-92" edge="1">
          <mxGeometry relative="1" as="geometry" />
        </mxCell>
        <mxCell id="kzAq78kSjtGHVcET0Q6M-104" style="edgeStyle=orthogonalEdgeStyle;rounded=0;orthogonalLoop=1;jettySize=auto;html=1;entryX=0;entryY=0.5;entryDx=0;entryDy=0;endArrow=block;endFill=0;" parent="1" source="kzAq78kSjtGHVcET0Q6M-81" target="kzAq78kSjtGHVcET0Q6M-99" edge="1">
          <mxGeometry relative="1" as="geometry" />
        </mxCell>
        <mxCell id="kzAq78kSjtGHVcET0Q6M-109" value="&lt;font style=&quot;font-size: 14px;&quot;&gt;PaymentFactory&lt;/font&gt;" style="swimlane;fontStyle=1;align=center;verticalAlign=top;childLayout=stackLayout;horizontal=1;startSize=26;horizontalStack=0;resizeParent=1;resizeParentMax=0;resizeLast=0;collapsible=1;marginBottom=0;whiteSpace=wrap;html=1;" parent="1" vertex="1">
          <mxGeometry x="60" y="-600" width="300" height="52" as="geometry" />
        </mxCell>
        <mxCell id="kzAq78kSjtGHVcET0Q6M-110" value="+ getModeOfPayment(PaymentMode): ParkingSpot" style="text;strokeColor=none;fillColor=none;align=left;verticalAlign=top;spacingLeft=4;spacingRight=4;overflow=hidden;rotatable=0;points=[[0,0.5],[1,0.5]];portConstraint=eastwest;whiteSpace=wrap;html=1;" parent="kzAq78kSjtGHVcET0Q6M-109" vertex="1">
          <mxGeometry y="26" width="300" height="26" as="geometry" />
        </mxCell>
        <mxCell id="kzAq78kSjtGHVcET0Q6M-111" value="Payment&lt;div&gt;&amp;lt;&amp;lt;&lt;i&gt;Interface&amp;gt;&amp;gt;&lt;/i&gt;&lt;/div&gt;" style="swimlane;fontStyle=0;childLayout=stackLayout;horizontal=1;startSize=26;fillColor=none;horizontalStack=0;resizeParent=1;resizeParentMax=0;resizeLast=0;collapsible=1;marginBottom=0;whiteSpace=wrap;html=1;" parent="1" vertex="1">
          <mxGeometry x="490" y="-600" width="240" height="52" as="geometry" />
        </mxCell>
        <mxCell id="kzAq78kSjtGHVcET0Q6M-112" value="+ completePayment(Price): boolean" style="text;strokeColor=none;fillColor=none;align=left;verticalAlign=top;spacingLeft=4;spacingRight=4;overflow=hidden;rotatable=0;points=[[0,0.5],[1,0.5]];portConstraint=eastwest;whiteSpace=wrap;html=1;" parent="kzAq78kSjtGHVcET0Q6M-111" vertex="1">
          <mxGeometry y="26" width="240" height="26" as="geometry" />
        </mxCell>
        <mxCell id="kzAq78kSjtGHVcET0Q6M-115" style="edgeStyle=orthogonalEdgeStyle;rounded=0;orthogonalLoop=1;jettySize=auto;html=1;entryX=0;entryY=0.25;entryDx=0;entryDy=0;endArrow=block;endFill=0;" parent="1" source="kzAq78kSjtGHVcET0Q6M-92" target="kzAq78kSjtGHVcET0Q6M-86" edge="1">
          <mxGeometry relative="1" as="geometry">
            <Array as="points">
              <mxPoint x="1120" y="-327" />
              <mxPoint x="1120" y="-327" />
            </Array>
          </mxGeometry>
        </mxCell>
        <mxCell id="kzAq78kSjtGHVcET0Q6M-116" value="&lt;p style=&quot;margin:0px;margin-top:4px;text-align:center;&quot;&gt;&lt;b&gt;UPI&lt;/b&gt;&lt;/p&gt;&lt;hr size=&quot;1&quot; style=&quot;border-style:solid;&quot;&gt;&lt;p style=&quot;margin:0px;margin-left:4px;&quot;&gt;+ completePayment(Price): boolean&lt;/p&gt;" style="verticalAlign=top;align=left;overflow=fill;html=1;whiteSpace=wrap;" parent="1" vertex="1">
          <mxGeometry x="360" y="-510" width="250" height="50" as="geometry" />
        </mxCell>
        <mxCell id="kzAq78kSjtGHVcET0Q6M-117" value="&lt;p style=&quot;margin:0px;margin-top:4px;text-align:center;&quot;&gt;&lt;b&gt;Card&lt;/b&gt;&lt;/p&gt;&lt;hr size=&quot;1&quot; style=&quot;border-style:solid;&quot;&gt;&lt;p style=&quot;margin:0px;margin-left:4px;&quot;&gt;+ completePayment(Price): boolean&lt;/p&gt;" style="verticalAlign=top;align=left;overflow=fill;html=1;whiteSpace=wrap;" parent="1" vertex="1">
          <mxGeometry x="670" y="-510" width="250" height="50" as="geometry" />
        </mxCell>
        <mxCell id="kzAq78kSjtGHVcET0Q6M-118" style="edgeStyle=orthogonalEdgeStyle;rounded=0;orthogonalLoop=1;jettySize=auto;html=1;entryX=0.436;entryY=1.026;entryDx=0;entryDy=0;entryPerimeter=0;endArrow=open;endFill=0;" parent="1" source="kzAq78kSjtGHVcET0Q6M-116" target="kzAq78kSjtGHVcET0Q6M-112" edge="1">
          <mxGeometry relative="1" as="geometry" />
        </mxCell>
        <mxCell id="kzAq78kSjtGHVcET0Q6M-120" style="edgeStyle=orthogonalEdgeStyle;rounded=0;orthogonalLoop=1;jettySize=auto;html=1;entryX=0.751;entryY=1.026;entryDx=0;entryDy=0;entryPerimeter=0;endArrow=open;endFill=0;" parent="1" source="kzAq78kSjtGHVcET0Q6M-117" target="kzAq78kSjtGHVcET0Q6M-112" edge="1">
          <mxGeometry relative="1" as="geometry" />
        </mxCell>
        <mxCell id="kzAq78kSjtGHVcET0Q6M-121" style="edgeStyle=orthogonalEdgeStyle;rounded=0;orthogonalLoop=1;jettySize=auto;html=1;entryX=0.01;entryY=0.068;entryDx=0;entryDy=0;entryPerimeter=0;endArrow=block;endFill=0;" parent="1" source="kzAq78kSjtGHVcET0Q6M-109" target="kzAq78kSjtGHVcET0Q6M-112" edge="1">
          <mxGeometry relative="1" as="geometry">
            <Array as="points">
              <mxPoint x="320" y="-572" />
              <mxPoint x="320" y="-572" />
            </Array>
          </mxGeometry>
        </mxCell>
        <mxCell id="kzAq78kSjtGHVcET0Q6M-123" style="edgeStyle=orthogonalEdgeStyle;rounded=0;orthogonalLoop=1;jettySize=auto;html=1;entryX=0.585;entryY=0.991;entryDx=0;entryDy=0;entryPerimeter=0;endArrow=open;endFill=0;" parent="1" source="kzAq78kSjtGHVcET0Q6M-80" target="kzAq78kSjtGHVcET0Q6M-110" edge="1">
          <mxGeometry relative="1" as="geometry" />
        </mxCell>
      </root>
    </mxGraphModel>
  </diagram>
</mxfile>
